PathFileType	4	(X/Y/Z)	C:\Users\chris\Documents\GitHub\baseballds\vids\pitch3_Sports2D\pitch3_Sports2D_m_person00.trc
DataRate	CameraRate	NumFrames	NumMarkers	Units	OrigDataRate	OrigDataStartFrame	OrigNumFrames
30	30	11	22	m	30	150	240
Frame#	Time	Hip			RHip			RKnee			RAnkle			RBigToe			RSmallToe			RHeel			LHip			LKnee			LAnkle			LBigToe			LSmallToe			LHeel			Neck			Head			Nose			RShoulder			RElbow			RWrist			LShoulder			LElbow			LWrist		
		X1	Y1	Z1	X2	Y2	Z2	X3	Y3	Z3	X4	Y4	Z4	X5	Y5	Z5	X6	Y6	Z6	X7	Y7	Z7	X8	Y8	Z8	X9	Y9	Z9	X10	Y10	Z10	X11	Y11	Z11	X12	Y12	Z12	X13	Y13	Z13	X14	Y14	Z14	X15	Y15	Z15	X16	Y16	Z16	X17	Y17	Z17	X18	Y18	Z18	X19	Y19	Z19	X20	Y20	Z20	X21	Y21	Z21	X22	Y22	Z22
150	5.0	0.612571288043433	0.7889896235792779	0.0	0.5822120384684437	0.7614504175741061	0.0	0.6163693769131134	0.3425254824353861	0.0	0.5019942789912513	-0.06487007313460676	0.0	0.6885352703091436	-0.17229092884328306	0.0	0.6398996641541105	-0.18232019524770082	0.0	0.4521044187939608	-0.11904151839393065	0.0	0.6555267451256014	0.7593753697917023	0.0	0.6545499548575294	0.3675570434553701	0.0	0.6030505048615111	0.04909322584915232	0.0	0.7721364785174839	-0.06651958808491978	0.0	0.7499923209232551	-0.030343919767354767	0.0	0.5676420071281636	0.005280311779594186	0.0	0.7609580796221556	1.3624885698636289	0.0	0.8189694463802668	1.5951710815284532	0.0	0.9158947513356677	1.4585349395380645	0.0	0.6999212176133368	1.2665938450905436	0.0	0.6564981411447364	0.9557032086850048	0.0	0.8991210685852025	0.9490448833310065	0.0	0.7739039193838967	1.2566162098509206	0.0	0.7267305978967311	0.9913583527572245	0.0	0.8931978038238997	0.9448961782377311	0.0
151	5.033333333333333	0.611849110441917	0.7916097231356305	0.0	0.5827105243360489	0.7649252807273421	0.0	0.6170921089619148	0.3437972744089908	0.0	0.5017861270264286	-0.06518040874250856	0.0	0.6858291550887029	-0.16864491519686986	0.0	0.6368139262869824	-0.17860961815933132	0.0	0.4501577365664368	-0.11753496683332612	0.0	0.6550194939653436	0.7625227101923511	0.0	0.654244457299071	0.36962972339469785	0.0	0.6000355198143174	0.05018975906538212	0.0	0.7701137174727695	-0.06573128219297708	0.0	0.7480126160501652	-0.029597656894523885	0.0	0.564196278171386	0.003913140921652199	0.0	0.7622315406593512	1.3636748368825107	0.0	0.8192128039714544	1.5964499130845007	0.0	0.9169552163937273	1.458825942931575	0.0	0.699808570157055	1.2680301857103196	0.0	0.6534939358809213	0.957912887113407	0.0	0.8981579835739699	0.9502556443518527	0.0	0.7732657765229595	1.2584931929620158	0.0	0.7233959274425622	0.9914758996155446	0.0	0.8883302758845723	0.9443849078595458	0.0
152	5.066666666666666	0.6123843322070575	0.7931042261661713	0.0	0.584251072075613	0.7683227428704584	0.0	0.6175866291408406	0.34453691341329035	0.0	0.5010652387379647	-0.0664740532448791	0.0	0.6854927194093701	-0.1659119119884361	0.0	0.6365580158151524	-0.17630077816688366	0.0	0.44775477256691304	-0.11621265091920827	0.0	0.6569822133722276	0.7664986531694739	0.0	0.6548608195123206	0.37103345867165327	0.0	0.5997729841816273	0.051154844463593245	0.0	0.7704122773428185	-0.06490625149097416	0.0	0.7490084738834836	-0.02884554549608759	0.0	0.5616468490515477	0.0021980401125377006	0.0	0.763224939964611	1.365255921195163	0.0	0.8234580214746908	1.5987617144312987	0.0	0.9203090570997812	1.4551069435770387	0.0	0.7003320586288466	1.270311096946385	0.0	0.6508476146881815	0.9584589614531187	0.0	0.898644357366453	0.9502468282971874	0.0	0.773429959125495	1.260502237227639	0.0	0.7246896964453083	0.9921493849978837	0.0	0.8873066851959036	0.9442709305350081	0.0
153	5.1	0.613746942271631	0.7926712287725697	0.0	0.5866694104859911	0.7670083420890088	0.0	0.6171216342298744	0.3454378250629889	0.0	0.5015435997109304	-0.06594166569821948	0.0	0.6884500724366851	-0.16585955732651672	0.0	0.6414723948057032	-0.17746449091868616	0.0	0.4485550504171212	-0.11447561566046037	0.0	0.6604762646067744	0.7654831213030014	0.0	0.6552915350455871	0.3708311740180247	0.0	0.6012543279370597	0.0525981296505693	0.0	0.7718075564619475	-0.06630572329495614	0.0	0.7505227258757171	-0.030335741281993237	0.0	0.5614678565555806	0.0027654832903901082	0.0	0.7664683131099612	1.3673804983716888	0.0	0.8285668404972651	1.6013102728315223	0.0	0.924696689009354	1.452711382503449	0.0	0.7018171912333804	1.2724780544213752	0.0	0.6506813524756306	0.957396655155956	0.0	0.8991137656314574	0.9497335400307368	0.0	0.7754299795040708	1.2623032295396872	0.0	0.728804775568637	0.9949067167554624	0.0	0.8906227121799516	0.9470494085396324	0.0
154	5.133333333333333	0.6138251882141731	0.7925449271422942	0.0	0.5880425754539492	0.7649079633295757	0.0	0.6165131909411953	0.34609659651118796	0.0	0.5023205534678695	-0.06274131798089269	0.0	0.6895546072218185	-0.16576510855394266	0.0	0.6442166963693636	-0.17868797610770368	0.0	0.4504411446136238	-0.11261027555921324	0.0	0.6620735417837551	0.7634028458908131	0.0	0.6554416706265206	0.3717959627232748	0.0	0.6016969239999772	0.05383247686203561	0.0	0.7709491835989015	-0.06580736847638291	0.0	0.7502781524737413	-0.029952297609864037	0.0	0.561615707166745	0.004829021501335906	0.0	0.7711148283578703	1.368783408414952	0.0	0.8326342277526585	1.6022267764038716	0.0	0.9272904872477165	1.4526529582760266	0.0	0.7019128776035367	1.273583755861755	0.0	0.650282676095298	0.9561632506476213	0.0	0.8977412547454027	0.9502354470094739	0.0	0.7762931301460028	1.2642290649950412	0.0	0.7297263019009437	0.9990348191365565	0.0	0.8924076794484311	0.9516182892134138	0.0
155	5.166666666666667	0.6122832596022588	0.7940554908302249	0.0	0.5875481602253046	0.7668317487462365	0.0	0.616669720401246	0.34542862849167266	0.0	0.5011916939766576	-0.059127529890088446	0.0	0.6874687185532663	-0.16292867833733088	0.0	0.6419029148053993	-0.1769410186120605	0.0	0.4500931673193904	-0.11125796119716944	0.0	0.6605448070122348	0.7659166864570517	0.0	0.655939249493854	0.37477171605249476	0.0	0.6007114919652845	0.054225178846067486	0.0	0.7680297287653118	-0.06118721045012246	0.0	0.7485651726286432	-0.025395096711273768	0.0	0.5604010996397826	0.006394981783011122	0.0	0.7740694152925729	1.3685662647564198	0.0	0.8361368467584588	1.6015153490478338	0.0	0.9271159682038287	1.4528680632011153	0.0	0.6998701189424746	1.2731864399280266	0.0	0.6480156083681444	0.9559512338907863	0.0	0.8967437655946366	0.9510413795067312	0.0	0.7742051661532939	1.266613049832898	0.0	0.7269393154084774	1.0026543330271753	0.0	0.8909747573692091	0.9554541050679213	0.0
156	5.2	0.6112379465557831	0.7950150472445431	0.0	0.5865158726917241	0.7689272546113624	0.0	0.6172186116667444	0.3444054916509589	0.0	0.4989283951817683	-0.056876402646926866	0.0	0.6875555602011629	-0.15956704407143346	0.0	0.6406908585549402	-0.17461433244773572	0.0	0.44880348541947107	-0.10977751612279614	0.0	0.6586065743883409	0.7691364012814493	0.0	0.6567789126149994	0.3764545638313988	0.0	0.59998049649267	0.054451823143555636	0.0	0.7659425874073029	-0.05841874400115346	0.0	0.7463515622497189	-0.02256095571704655	0.0	0.5588082812948697	0.007792177348649338	0.0	0.774544018453909	1.367939280780645	0.0	0.8394109770535975	1.6008219483957296	0.0	0.9256155792787165	1.4526775204737865	0.0	0.6995669852983923	1.2719872998782604	0.0	0.6462916046327932	0.9560942249123814	0.0	0.8978080448299198	0.9501474146020515	0.0	0.7718537430515962	1.268515718384682	0.0	0.7248365670288963	1.0041219291604355	0.0	0.8902007615475335	0.9565552067947893	0.0
157	5.233333333333333	0.6119425747782232	0.7935547520616274	0.0	0.5866963049759278	0.7667642380651413	0.0	0.6175331364097458	0.34493072500252386	0.0	0.4977201263915404	-0.05567613798830885	0.0	0.6904489845945629	-0.15900448960919308	0.0	0.641817031315292	-0.1739985937868391	0.0	0.4483195170673187	-0.10779754346922443	0.0	0.658498365165081	0.7675251622479995	0.0	0.6573183096601835	0.37538805640063694	0.0	0.6004489557965065	0.05555179281101527	0.0	0.765322723522216	-0.06013415411710991	0.0	0.7440235886400501	-0.02414887949782941	0.0	0.5585413304010153	0.010370222738122836	0.0	0.7736595802906668	1.3681496081841047	0.0	0.8422838008271082	1.6009189669301072	0.0	0.9239511067744751	1.452468162440894	0.0	0.7030423891798825	1.2709002254196604	0.0	0.6472401137000655	0.9550507631073184	0.0	0.8980777911073985	0.9487162547135196	0.0	0.7717674220179135	1.2685579198627055	0.0	0.7242914208039424	1.0032337694287687	0.0	0.8904659762674931	0.9549384442226128	0.0
158	5.266666666666667	0.6126418266741345	0.792041274958563	0.0	0.5877914195650209	0.7644190453314361	0.0	0.6177355176185999	0.3464190110942638	0.0	0.49719700583843407	-0.055017590776086145	0.0	0.6889676768329284	-0.160185788587288	0.0	0.6389188752119784	-0.173285226328563	0.0	0.44737951077283994	-0.10645485557414305	0.0	0.658989184290586	0.7650117991561285	0.0	0.6577135629412846	0.3746400050351116	0.0	0.602112684229083	0.057691524673587444	0.0	0.7657066759227	-0.05942261990966677	0.0	0.743357533651018	-0.023402504712682726	0.0	0.5600643995700907	0.01320477022474004	0.0	0.7718317206970986	1.3693967694551434	0.0	0.8450329757370437	1.6013578978788519	0.0	0.9216718157463719	1.4513907687324834	0.0	0.7060372190966668	1.2712257646359928	0.0	0.6499389271408176	0.9539170360353041	0.0	0.8969006643667518	0.9510622770595438	0.0	0.7714562636095721	1.268841542765534	0.0	0.7220228223151306	1.0030792918559688	0.0	0.8858757435425405	0.9525792387247126	0.0
159	5.3	0.6115358722480272	0.7931129308457794	0.0	0.5883252393222554	0.7668723700821497	0.0	0.6186006723541155	0.3469798907720518	0.0	0.4955586526486066	-0.05510071717811865	0.0	0.6808522978127272	-0.16068332971439442	0.0	0.6311678078922915	-0.17142976980178137	0.0	0.44519091537951444	-0.10645292324360237	0.0	0.658322207461434	0.7680624124828691	0.0	0.6592366415214123	0.3766933266655485	0.0	0.6048637589566287	0.060257877238990114	0.0	0.7671763809372757	-0.05338045417039375	0.0	0.7454997706982401	-0.01749214521979512	0.0	0.5626092612742979	0.014552075957531801	0.0	0.7696284024927621	1.371256017319198	0.0	0.8479165387279998	1.601527799767503	0.0	0.9185870537497359	1.4490483411034434	0.0	0.7053707532106714	1.273585867560242	0.0	0.6524412883699673	0.9558164781690872	0.0	0.8978081810535737	0.959713637641389	0.0	0.7676516352202915	1.2724846473041238	0.0	0.7175485180467155	1.0064618765177962	0.0	0.8741919706180332	0.9521209286184673	0.0
160	5.333333333333333	0.609813524645009	0.7948468475076712	0.0	0.5889864727834359	0.7715137155060147	0.0	0.6212652635103897	0.3471002948265599	0.0	0.493123810161654	-0.05541798513994653	0.0	0.6745279246495492	-0.16087710647464867	0.0	0.6268404498637379	-0.16967412319003497	0.0	0.4430521410613456	-0.10604451844126485	0.0	0.656887246021343	0.774295204685408	0.0	0.662265454876861	0.37960956804004287	0.0	0.6071240119200719	0.06273306647143054	0.0	0.7679408671951423	-0.04917594160661284	0.0	0.7469693422024266	-0.013497484979951456	0.0	0.5640168959893841	0.015362796345538512	0.0	0.76839305638281	1.3724307216139415	0.0	0.8501790700293763	1.6014686122133472	0.0	0.9159732217827604	1.4477051984454632	0.0	0.7041647905368618	1.2758760793967852	0.0	0.6542423597384726	0.9611079835159978	0.0	0.9018372179843175	0.9729359777753704	0.0	0.7615155046995837	1.2775780638844065	0.0	0.7154076397826952	1.010742697764768	0.0	0.8655700272214494	0.9570783991555494	0.0
